<svg width="500" height="175" viewBox="0 0 500 175" fill="none" xmlns="http://www.w3.org/2000/svg">
<g clip-path="url(#clip0_549_2)">
<path d="M80.2328 123.7C75.0995 123.7 70.4995 122.867 66.4328 121.2C62.3661 119.533 59.0995 117.067 56.6328 113.8C54.2328 110.533 52.9661 106.6 52.8328 102H71.0328C71.2995 104.6 72.1995 106.6 73.7328 108C75.2661 109.333 77.2661 110 79.7328 110C82.2661 110 84.2661 109.433 85.7328 108.3C87.1995 107.1 87.9328 105.467 87.9328 103.4C87.9328 101.667 87.3328 100.233 86.1328 99.1C84.9995 97.9667 83.5661 97.0333 81.8328 96.3C80.1661 95.5667 77.7661 94.7333 74.6328 93.8C70.0995 92.4 66.3995 91 63.5328 89.6C60.6661 88.2 58.1995 86.1333 56.1328 83.4C54.0661 80.6667 53.0328 77.1 53.0328 72.7C53.0328 66.1667 55.3995 61.0667 60.1328 57.4C64.8661 53.6667 71.0328 51.8 78.6328 51.8C86.3661 51.8 92.5995 53.6667 97.3328 57.4C102.066 61.0667 104.599 66.2 104.933 72.8H86.4328C86.2995 70.5333 85.4661 68.7667 83.9328 67.5C82.3995 66.1667 80.4328 65.5 78.0328 65.5C75.9661 65.5 74.2995 66.0667 73.0328 67.2C71.7661 68.2667 71.1328 69.8333 71.1328 71.9C71.1328 74.1667 72.1995 75.9333 74.3328 77.2C76.4661 78.4667 79.7995 79.8333 84.3328 81.3C88.8661 82.8333 92.5328 84.3 95.3328 85.7C98.1995 87.1 100.666 89.1333 102.733 91.8C104.799 94.4667 105.833 97.9 105.833 102.1C105.833 106.1 104.799 109.733 102.733 113C100.733 116.267 97.7995 118.867 93.9328 120.8C90.0661 122.733 85.4995 123.7 80.2328 123.7ZM168.956 94.2C168.956 95.8 168.856 97.4667 168.656 99.2H129.956C130.223 102.667 131.323 105.333 133.256 107.2C135.256 109 137.69 109.9 140.556 109.9C144.823 109.9 147.79 108.1 149.456 104.5H167.656C166.723 108.167 165.023 111.467 162.556 114.4C160.156 117.333 157.123 119.633 153.456 121.3C149.79 122.967 145.69 123.8 141.156 123.8C135.69 123.8 130.823 122.633 126.556 120.3C122.29 117.967 118.956 114.633 116.556 110.3C114.156 105.967 112.956 100.9 112.956 95.1C112.956 89.3 114.123 84.2333 116.456 79.9C118.856 75.5667 122.19 72.2333 126.456 69.9C130.723 67.5667 135.623 66.4 141.156 66.4C146.556 66.4 151.356 67.5333 155.556 69.8C159.756 72.0667 163.023 75.3 165.356 79.5C167.756 83.7 168.956 88.6 168.956 94.2ZM151.456 89.7C151.456 86.7667 150.456 84.4333 148.456 82.7C146.456 80.9667 143.956 80.1 140.956 80.1C138.09 80.1 135.656 80.9333 133.656 82.6C131.723 84.2667 130.523 86.6333 130.056 89.7H151.456ZM258.077 67.2L242.977 123H224.077L215.277 86.8L206.177 123H187.377L172.177 67.2H189.277L197.177 107.1L206.577 67.2H224.677L234.177 106.9L241.977 67.2H258.077ZM261.198 95C261.198 89.2667 262.265 84.2333 264.398 79.9C266.598 75.5667 269.565 72.2333 273.298 69.9C277.032 67.5667 281.198 66.4 285.798 66.4C289.732 66.4 293.165 67.2 296.098 68.8C299.098 70.4 301.398 72.5 302.998 75.1V67.2H320.098V123H302.998V115.1C301.332 117.7 298.998 119.8 295.998 121.4C293.065 123 289.632 123.8 285.698 123.8C281.165 123.8 277.032 122.633 273.298 120.3C269.565 117.9 266.598 114.533 264.398 110.2C262.265 105.8 261.198 100.733 261.198 95ZM302.998 95.1C302.998 90.8333 301.798 87.4667 299.398 85C297.065 82.5333 294.198 81.3 290.798 81.3C287.398 81.3 284.498 82.5333 282.098 85C279.765 87.4 278.598 90.7333 278.598 95C278.598 99.2667 279.765 102.667 282.098 105.2C284.498 107.667 287.398 108.9 290.798 108.9C294.198 108.9 297.065 107.667 299.398 105.2C301.798 102.733 302.998 99.3667 302.998 95.1ZM340.47 123.8C337.47 123.8 335.003 122.933 333.07 121.2C331.203 119.4 330.27 117.2 330.27 114.6C330.27 111.933 331.203 109.7 333.07 107.9C335.003 106.1 337.47 105.2 340.47 105.2C343.403 105.2 345.803 106.1 347.67 107.9C349.603 109.7 350.57 111.933 350.57 114.6C350.57 117.2 349.603 119.4 347.67 121.2C345.803 122.933 343.403 123.8 340.47 123.8ZM369.292 61.4C366.292 61.4 363.826 60.5333 361.892 58.8C360.026 57 359.092 54.8 359.092 52.2C359.092 49.5333 360.026 47.3333 361.892 45.6C363.826 43.8 366.292 42.9 369.292 42.9C372.226 42.9 374.626 43.8 376.492 45.6C378.426 47.3333 379.392 49.5333 379.392 52.2C379.392 54.8 378.426 57 376.492 58.8C374.626 60.5333 372.226 61.4 369.292 61.4ZM377.792 67.2V123H360.692V67.2H377.792ZM424.184 66.6C430.718 66.6 435.918 68.7333 439.784 73C443.718 77.2 445.684 83 445.684 90.4V123H428.684V92.7C428.684 88.9667 427.718 86.0667 425.784 84C423.851 81.9333 421.251 80.9 417.984 80.9C414.718 80.9 412.118 81.9333 410.184 84C408.251 86.0667 407.284 88.9667 407.284 92.7V123H390.184V67.2H407.284V74.6C409.018 72.1333 411.351 70.2 414.284 68.8C417.218 67.3333 420.518 66.6 424.184 66.6Z" fill="#226634"/>
</g>
<defs>
<clipPath id="clip0_549_2">
<rect width="500" height="175" fill="white"/>
</clipPath>
</defs>
</svg>
